<svg width="163" height="17" viewBox="0 0 163 17" fill="none" xmlns="http://www.w3.org/2000/svg">
<path d="M16.6924 16H13.8027V5.53711H13.7168L9.50586 15.8496H7.46484L3.25391 5.53711H3.16797V16H0.27832V0.499023H4.03809L8.44238 11.4883H8.52832L12.9326 0.499023H16.6924V16Z" fill="white"/>
<path d="M29.54 16H19.2705V0.499023H29.54V3.17383H22.5146V6.91211H29.1426V9.4043H22.5146V13.3145H29.54V16Z" fill="white"/>
<path d="M35.6416 16V3.17383H31.1084V0.499023H43.4297V3.17383H38.8857V16H35.6416Z" fill="white"/>
<path d="M55.4502 16V9.46875H48.4678V16H45.2236V0.499023H48.4678V6.79395H55.4502V0.499023H58.6943V16H55.4502Z" fill="white"/>
<path d="M71.542 16H61.2725V0.499023H71.542V3.17383H64.5166V6.91211H71.1445V9.4043H64.5166V13.3145H71.542V16Z" fill="white"/>
<path d="M79.8564 0.499023C82.1911 0.499023 84.0029 1.16504 85.292 2.49707C86.5954 3.84342 87.2471 5.74121 87.2471 8.19043C87.2471 10.6468 86.5954 12.5625 85.292 13.9375C83.9958 15.3125 82.1839 16 79.8564 16H73.8838V0.499023H79.8564ZM77.1279 13.3145H79.4697C80.9235 13.3145 82.0299 12.8812 82.7891 12.0146C83.5553 11.141 83.9385 9.86979 83.9385 8.20117C83.9385 6.58268 83.5518 5.34017 82.7783 4.47363C82.0049 3.6071 80.902 3.17383 79.4697 3.17383H77.1279V13.3145Z" fill="white"/>
<path d="M89.9648 16.1289C89.485 16.1289 89.0768 15.9606 88.7402 15.624C88.4036 15.2874 88.2354 14.8792 88.2354 14.3994C88.2354 13.9124 88.4036 13.5042 88.7402 13.1748C89.0768 12.8382 89.485 12.6699 89.9648 12.6699C90.4518 12.6699 90.86 12.8382 91.1895 13.1748C91.526 13.5042 91.6943 13.9124 91.6943 14.3994C91.6943 14.8792 91.526 15.2874 91.1895 15.624C90.8529 15.9606 90.4447 16.1289 89.9648 16.1289Z" fill="white"/>
<path d="M110.729 16H107.84V5.53711H107.754L103.543 15.8496H101.502L97.291 5.53711H97.2051V16H94.3154V0.499023H98.0752L102.479 11.4883H102.565L106.97 0.499023H110.729V16Z" fill="white"/>
<path d="M116.552 10.1992C116.552 11.209 116.835 12.0039 117.4 12.584C117.973 13.1855 118.775 13.4863 119.807 13.4863C120.831 13.4863 121.629 13.1855 122.202 12.584C122.768 12.0039 123.051 11.209 123.051 10.1992V0.499023H126.295V10.5215C126.295 12.2402 125.708 13.626 124.533 14.6787C123.352 15.7386 121.776 16.2686 119.807 16.2686C117.83 16.2686 116.251 15.7386 115.069 14.6787C113.895 13.626 113.308 12.2402 113.308 10.5215V0.499023H116.552V10.1992Z" fill="white"/>
<path d="M131.43 11.585C131.501 12.2152 131.838 12.7272 132.439 13.1211C133.034 13.5078 133.764 13.7012 134.631 13.7012C135.49 13.7012 136.192 13.515 136.736 13.1426C137.273 12.7773 137.542 12.3083 137.542 11.7354C137.542 11.234 137.341 10.8294 136.94 10.5215C136.539 10.2135 135.87 9.95573 134.932 9.74805L132.912 9.30762C130.069 8.69889 128.647 7.25586 128.647 4.97852C128.647 3.56055 129.202 2.41113 130.312 1.53027C131.415 0.663737 132.837 0.230469 134.577 0.230469C136.368 0.230469 137.8 0.656576 138.874 1.50879C139.934 2.35384 140.478 3.48177 140.507 4.89258H137.467C137.417 4.24089 137.127 3.72526 136.597 3.3457C136.074 2.97331 135.404 2.78711 134.588 2.78711C133.786 2.78711 133.141 2.96257 132.654 3.31348C132.16 3.66439 131.913 4.1263 131.913 4.69922C131.913 5.17188 132.114 5.55859 132.515 5.85938C132.909 6.14583 133.553 6.3929 134.448 6.60059L136.328 6.99805C137.882 7.32747 139.014 7.8431 139.723 8.54492C140.432 9.23958 140.786 10.1777 140.786 11.3594C140.786 12.8633 140.22 14.0557 139.089 14.9365C137.957 15.8245 136.428 16.2686 134.502 16.2686C132.633 16.2686 131.147 15.8532 130.044 15.0225C128.934 14.1846 128.354 13.0387 128.304 11.585H131.43Z" fill="white"/>
<path d="M142.784 16V0.499023H146.028V16H142.784Z" fill="white"/>
<path d="M155.46 16.2686C153.197 16.2686 151.41 15.556 150.1 14.1309C148.782 12.6986 148.123 10.7363 148.123 8.24414C148.123 5.75911 148.785 3.80046 150.11 2.36816C151.421 0.943034 153.204 0.230469 155.46 0.230469C157.336 0.230469 158.908 0.767578 160.176 1.8418C161.451 2.93034 162.149 4.33756 162.271 6.06348H159.112C158.962 5.111 158.554 4.34831 157.888 3.77539C157.215 3.20247 156.405 2.91602 155.46 2.91602C154.235 2.91602 153.258 3.39225 152.527 4.34473C151.797 5.31152 151.432 6.60775 151.432 8.2334C151.432 9.8877 151.793 11.1911 152.517 12.1436C153.24 13.1032 154.225 13.583 155.471 13.583C156.43 13.583 157.236 13.318 157.888 12.7881C158.539 12.2581 158.951 11.5348 159.123 10.6182H162.281C162.102 12.3441 161.397 13.7191 160.165 14.7432C158.933 15.7601 157.365 16.2686 155.46 16.2686Z" fill="white"/>
</svg>
