<svg width="21" height="18" viewBox="0 0 21 18" fill="none" xmlns="http://www.w3.org/2000/svg">
<path fill-rule="evenodd" clip-rule="evenodd" d="M10.5654 0.593972C11.8329 0.585361 13.0897 0.827192 14.2635 1.30561C15.4397 1.78498 16.5093 2.4924 17.4108 3.3871C18.3124 4.28179 19.0279 5.34607 19.5161 6.51858C20.0044 7.69109 20.2558 8.94864 20.2558 10.2188V15.25C20.2558 15.8965 19.999 16.5165 19.5419 16.9736C19.0847 17.4307 18.4648 17.6875 17.8183 17.6875H16.3808C15.7343 17.6875 15.1143 17.4307 14.6572 16.9736C14.2001 16.5165 13.9433 15.8965 13.9433 15.25V11.6563C13.9433 11.0098 14.2001 10.3898 14.6572 9.93268C15.1143 9.47556 15.7343 9.21876 16.3808 9.21876H18.1899C18.1023 8.55638 17.9278 7.90693 17.6698 7.28745C17.283 6.35857 16.7162 5.51545 16.002 4.80666C15.2878 4.09788 14.4404 3.53745 13.5086 3.15769C12.5769 2.77793 11.5791 2.58634 10.573 2.59397H10.5578C9.55165 2.58634 8.55392 2.77793 7.62215 3.15769C6.69037 3.53745 5.84297 4.09788 5.12879 4.80666C4.41461 5.51545 3.84778 6.35857 3.46096 7.28745C3.20299 7.90693 3.02849 8.55638 2.94086 9.21876H4.75C5.39647 9.21876 6.01645 9.47556 6.47357 9.93268C6.93069 10.3898 7.1875 11.0098 7.1875 11.6563V15.25C7.1875 15.8965 6.93069 16.5165 6.47357 16.9736C6.01645 17.4307 5.39647 17.6875 4.75 17.6875H3.3125C2.66603 17.6875 2.04605 17.4307 1.58893 16.9736C1.13181 16.5165 0.875 15.8965 0.875 15.25V10.2188C0.875 8.94864 1.12638 7.69109 1.61466 6.51858C2.10293 5.34607 2.81844 4.28179 3.71995 3.3871C4.62145 2.4924 5.69112 1.78498 6.8673 1.30561C8.04114 0.827192 9.29789 0.585361 10.5654 0.593972ZM2.875 11.2188V15.25C2.875 15.366 2.92109 15.4773 3.00314 15.5594C3.08519 15.6414 3.19647 15.6875 3.3125 15.6875H4.75C4.86603 15.6875 4.97731 15.6414 5.05936 15.5594C5.14141 15.4773 5.1875 15.366 5.1875 15.25V11.6563C5.1875 11.5402 5.14141 11.4289 5.05936 11.3469C4.97731 11.2648 4.86603 11.2188 4.75 11.2188H2.875ZM18.2558 11.2188H16.3808C16.2648 11.2188 16.1535 11.2648 16.0714 11.3469C15.9894 11.4289 15.9433 11.5402 15.9433 11.6563V15.25C15.9433 15.366 15.9894 15.4773 16.0714 15.5594C16.1535 15.6414 16.2648 15.6875 16.3808 15.6875H17.8183C17.9343 15.6875 18.0456 15.6414 18.1277 15.5594C18.2097 15.4773 18.2558 15.366 18.2558 15.25V11.2188ZM10.5654 1.594V1.59403V1.594Z" fill="white"/>
</svg>
